<mxfile host="app.diagrams.net" modified="2023-12-21T10:56:26.693Z" agent="Mozilla/5.0 (Windows NT 10.0; Win64; x64) AppleWebKit/537.36 (KHTML, like Gecko) Chrome/120.0.0.0 Safari/537.36" etag="qvBaneKTY_ntTYk-WwaU" version="22.1.11" type="device">
  <diagram name="Page-1" id="oo_zW9OsIKqORpO0lD2N">
    <mxGraphModel dx="2074" dy="1116" grid="1" gridSize="10" guides="1" tooltips="1" connect="1" arrows="1" fold="1" page="1" pageScale="1" pageWidth="827" pageHeight="1169" math="0" shadow="0">
      <root>
        <mxCell id="0" />
        <mxCell id="1" parent="0" />
        <mxCell id="R2dapUQnimebzi5A1VB0-2" value="" style="edgeStyle=orthogonalEdgeStyle;rounded=0;orthogonalLoop=1;jettySize=auto;html=1;" edge="1" parent="1" source="WIREMCA7KVR-HLmu6_gf-12" target="R2dapUQnimebzi5A1VB0-1">
          <mxGeometry relative="1" as="geometry" />
        </mxCell>
        <mxCell id="WIREMCA7KVR-HLmu6_gf-12" value="App" style="whiteSpace=wrap;html=1;aspect=fixed;fillColor=#dae8fc;strokeColor=#6c8ebf;" parent="1" vertex="1">
          <mxGeometry x="400" y="80" width="80" height="80" as="geometry" />
        </mxCell>
        <mxCell id="WIREMCA7KVR-HLmu6_gf-19" value="Validator" style="whiteSpace=wrap;html=1;aspect=fixed;fillColor=#fff2cc;strokeColor=#d6b656;" parent="1" vertex="1">
          <mxGeometry x="240" y="200" width="80" height="80" as="geometry" />
        </mxCell>
        <mxCell id="WIREMCA7KVR-HLmu6_gf-35" value="" style="edgeStyle=orthogonalEdgeStyle;rounded=0;orthogonalLoop=1;jettySize=auto;html=1;dashed=1;" parent="1" source="R2dapUQnimebzi5A1VB0-1" target="WIREMCA7KVR-HLmu6_gf-34" edge="1">
          <mxGeometry relative="1" as="geometry" />
        </mxCell>
        <mxCell id="WIREMCA7KVR-HLmu6_gf-37" value="" style="edgeStyle=orthogonalEdgeStyle;rounded=0;orthogonalLoop=1;jettySize=auto;html=1;dashed=1;exitX=0.5;exitY=1;exitDx=0;exitDy=0;" parent="1" source="R2dapUQnimebzi5A1VB0-1" target="WIREMCA7KVR-HLmu6_gf-36" edge="1">
          <mxGeometry relative="1" as="geometry">
            <mxPoint x="560" y="280" as="sourcePoint" />
          </mxGeometry>
        </mxCell>
        <mxCell id="WIREMCA7KVR-HLmu6_gf-23" value="Player" style="whiteSpace=wrap;html=1;aspect=fixed;fillColor=#fff2cc;strokeColor=#d6b656;" parent="1" vertex="1">
          <mxGeometry x="560" y="200" width="80" height="80" as="geometry" />
        </mxCell>
        <mxCell id="WIREMCA7KVR-HLmu6_gf-33" style="edgeStyle=orthogonalEdgeStyle;rounded=0;orthogonalLoop=1;jettySize=auto;html=1;exitX=0.5;exitY=1;exitDx=0;exitDy=0;entryX=0.5;entryY=1;entryDx=0;entryDy=0;" parent="1" source="WIREMCA7KVR-HLmu6_gf-19" target="R2dapUQnimebzi5A1VB0-1" edge="1">
          <mxGeometry relative="1" as="geometry" />
        </mxCell>
        <mxCell id="WIREMCA7KVR-HLmu6_gf-34" value="Version1" style="ellipse;whiteSpace=wrap;html=1;fillColor=#d5e8d4;strokeColor=#82b366;dashed=1;" parent="1" vertex="1">
          <mxGeometry x="320" y="360" width="80" height="80" as="geometry" />
        </mxCell>
        <mxCell id="WIREMCA7KVR-HLmu6_gf-36" value="Version2" style="ellipse;whiteSpace=wrap;html=1;fillColor=#d5e8d4;strokeColor=#82b366;dashed=1;" parent="1" vertex="1">
          <mxGeometry x="480" y="360" width="80" height="80" as="geometry" />
        </mxCell>
        <mxCell id="R2dapUQnimebzi5A1VB0-4" style="edgeStyle=orthogonalEdgeStyle;rounded=0;orthogonalLoop=1;jettySize=auto;html=1;entryX=1;entryY=0.5;entryDx=0;entryDy=0;" edge="1" parent="1" source="R2dapUQnimebzi5A1VB0-1" target="WIREMCA7KVR-HLmu6_gf-19">
          <mxGeometry relative="1" as="geometry" />
        </mxCell>
        <mxCell id="R2dapUQnimebzi5A1VB0-8" style="edgeStyle=orthogonalEdgeStyle;rounded=0;orthogonalLoop=1;jettySize=auto;html=1;entryX=0;entryY=0.5;entryDx=0;entryDy=0;" edge="1" parent="1" source="R2dapUQnimebzi5A1VB0-1" target="WIREMCA7KVR-HLmu6_gf-23">
          <mxGeometry relative="1" as="geometry" />
        </mxCell>
        <mxCell id="R2dapUQnimebzi5A1VB0-1" value="Console/&lt;br&gt;State" style="whiteSpace=wrap;html=1;aspect=fixed;fillColor=#fff2cc;strokeColor=#d6b656;" vertex="1" parent="1">
          <mxGeometry x="400" y="200" width="80" height="80" as="geometry" />
        </mxCell>
        <mxCell id="R2dapUQnimebzi5A1VB0-5" value="args" style="text;html=1;align=center;verticalAlign=middle;resizable=0;points=[];autosize=1;strokeColor=none;fillColor=none;" vertex="1" parent="1">
          <mxGeometry x="335" y="218" width="50" height="30" as="geometry" />
        </mxCell>
        <mxCell id="R2dapUQnimebzi5A1VB0-6" value="State" style="text;html=1;align=center;verticalAlign=middle;resizable=0;points=[];autosize=1;strokeColor=none;fillColor=none;" vertex="1" parent="1">
          <mxGeometry x="335" y="278" width="50" height="30" as="geometry" />
        </mxCell>
        <mxCell id="R2dapUQnimebzi5A1VB0-10" value="Sequence" style="text;html=1;align=center;verticalAlign=middle;resizable=0;points=[];autosize=1;strokeColor=none;fillColor=none;" vertex="1" parent="1">
          <mxGeometry x="480" y="218" width="80" height="30" as="geometry" />
        </mxCell>
      </root>
    </mxGraphModel>
  </diagram>
</mxfile>
